<svg xmlns="http://www.w3.org/2000/svg" xmlns:xlink="http://www.w3.org/1999/xlink" xmlns:lucid="lucid" width="3342.48" height="1482"><g transform="translate(-218.51714409722223 281)" lucid:page-tab-id="0_0"><path d="M2260-274a6 6 0 0 1 6-6h1288a6 6 0 0 1 6 6v1468a6 6 0 0 1-6 6H2266a6 6 0 0 1-6-6zM500-274a6 6 0 0 1 6-6h1728a6 6 0 0 1 6 6v1468a6 6 0 0 1-6 6H506a6 6 0 0 1-6-6z" stroke="#000" stroke-width="2" fill="#fff"/><path d="M235.15 520H353.2c9.15 0 9.15 0 9.15 10.08v65.76c0 10.08 0 10.08-9.15 10.08H235.15c-9.15 0-9.15 0-9.15-10.08v-65.76c0-10.08 0-10.08 9.15-10.08z" fill="#29aae1"/><path d="M235.15 528.4h118.8V595h-118.8v-66.6z" fill="#fff"/><path d="M236.65 530.92h115.8v61.56h-115.8v-61.56z" fill="gray"/><path d="M220 625.72h149.85V640H220v-14.28z" fill="#29aae1"/><path d="M260.95 609.04H364.6l5.25 16.92H266.2l-5.25-16.92z" fill="#29aae1"/><path d="M327.55 609.04h-102.3l-5.25 16.8h102.3l5.25-16.8z" fill="#29aae1"/><path d="M268.9 612.28h89.7l3.6 11.28h-89.7l-3.6-11.28z" fill="#fff"/><path d="M305.8 612.28h-75.3l-3 11.28h75.3l3-11.28z" fill="#fff"/><use xlink:href="#a" transform="matrix(1,0,0,1,190,640) translate(29.51714409722223 23.08376736111111)"/><use xlink:href="#b" transform="matrix(1,0,0,1,190,640) translate(108.40169270833334 23.08376736111111)"/><path d="M252 384.6h176c8 0 12 4 12 12v56c0 8-4 12-12 12H252c-8 0-12-4-12-12v-56c0-8 4-12 12-12z" stroke="#333" stroke-width="2" fill="#f5f5f5"/><path d="M275 404.6c0 5.52-4.4 10-10 10s-10-4.48-10-10 4.4-10 10-10 10 4.48 10 10z" stroke="#333" stroke-width="2" fill-opacity="0"/><path d="M265 404.6v-4.96M265 404.6l5 2" stroke="#333" stroke-width="2"/><path d="M298.22 418.8h84.4v20.8h-84.4z" fill="none"/><use xlink:href="#c" transform="matrix(1,0,0,1,298.2194444443983,418.79999999995346) translate(0 20.8)"/><use xlink:href="#d" transform="matrix(1,0,0,1,298.2194444443983,418.79999999995346) translate(7.222222222222221 20.8)"/><path d="M580 520h120v120H580V520z" stroke="#000" stroke-opacity="0" fill="#7aa116"/><path d="M671.24 584.37l.56-4.12c5.33 3.2 5.4 4.54 5.4 4.54s-.96.74-5.96-.43zm-2.9-.84c-9.22-2.77-21.98-8.65-27.15-11.1v-.07c0-1.94-1.62-3.62-3.64-3.62s-3.63 1.68-3.63 3.62c0 2 1.6 3.6 3.63 3.6.9 0 1.7-.33 2.26-.83 6.14 2.85 18.82 8.65 28.1 11.42l-3.7 25.8v.24c0 2.26-10.1 6.38-26.5 6.38-16.64 0-26.8-4.12-26.8-6.4v-.24l-7.68-55.78c6.62 4.54 20.83 6.98 34.48 6.98 13.57 0 27.78-2.44 34.4-6.98l-3.8 26.97zm-65.9-32.85c.15-1.93 11.46-9.66 35.28-9.66s35.13 7.73 35.3 9.66v.68c-1.38 4.45-16.08 9.15-35.3 9.15-19.3 0-34-4.7-35.3-9.14v-.68zm73.56.1c0-5.22-14.94-12.78-38.28-12.78-23.34 0-38.28 7.56-38.28 12.77l.16 1.1 8.32 60.8c.16 6.8 18.33 9.33 29.8 9.33 14.2 0 29.32-3.28 29.48-9.32l3.63-25.37c2.02.5 3.64.76 4.93.76 1.77 0 3-.42 3.7-1.34.66-.67.82-1.5.66-2.44-.32-2.1-2.83-4.36-7.83-7.22l3.54-25.12.16-1.17z" stroke="#000" stroke-opacity="0" fill="#fff"/><use xlink:href="#e" transform="matrix(1,0,0,1,550,649) translate(8.511284722222229 21.52777777777778)"/><use xlink:href="#f" transform="matrix(1,0,0,1,550,649) translate(100.43836805555554 21.52777777777778)"/><use xlink:href="#g" transform="matrix(1,0,0,1,550,649) translate(6.1187065972222285 53.79340277777778)"/><use xlink:href="#h" transform="matrix(1,0,0,1,550,649) translate(94.43250868055556 53.79340277777778)"/><use xlink:href="#i" transform="matrix(1,0,0,1,550,649) translate(21.93901909722223 86.05902777777777)"/><use xlink:href="#j" transform="matrix(1,0,0,1,550,649) translate(121.97157118055554 86.05902777777777)"/><path d="M900 540h80v80h-80v-80z" stroke="#000" stroke-opacity="0" fill="url(#k)"/><path d="M933.04 563.04h1.92v-2h-1.92v2zm-2.08.96v-4c0-.56.48-.96 1.04-.96h4c.56 0 .96.4.96.96v4c0 .56-.4 1.04-.96 1.04h-4c-.56 0-1.04-.48-1.04-1.04zm10.08-6.96h1.92v-2h-1.92v2zm-2 .96v-4c0-.56.4-.96.96-.96h4c.56 0 1.04.4 1.04.96v4c0 .56-.48 1.04-1.04 1.04h-4c-.56 0-.96-.48-.96-1.04zm3.92 9.04h2.08v-2h-2.08v2zm-.96-4h4c.56 0 .96.4.96.96v4c0 .56-.4 1.04-.96 1.04h-4c-.56 0-.96-.48-.96-1.04v-4c0-.56.4-.96.96-.96zm-2 10.48c-1.76 0-8.16-.08-12.32-1.12l10.16 16.08c.08.16.16.32.16.56v2.24c1.44.4 2.72.4 4 0v-2.24c0-.24.08-.4.16-.56l10.16-16.08c-4.16 1.04-10.56 1.12-12.32 1.12zm-15.76-2.8c-.16-.24-.24-.48-.24-.8 0-2.8 9.36-3.36 14.96-3.44v2c-6.8.08-11.04.88-12.48 1.44 1.52.72 6.16 1.6 13.52 1.6 7.36 0 11.92-.88 13.52-1.6-.64-.24-2-.64-4.64-.96l.24-2c6.08.8 6.88 1.92 6.88 2.96 0 .32-.08.56-.24.8L944 589.28V592c0 .4-.24.8-.64.96-1.04.4-2.16.64-3.28.64-1.12 0-2.24-.24-3.44-.64-.4-.16-.64-.56-.64-.96v-2.72l-11.76-18.56zm22.72 28.88c.08.4 0 .8-.24 1.12l-6 6c-.24.16-.48.32-.72.32s-.48-.16-.72-.32l-6-6c-.24-.32-.32-.72-.24-1.12.16-.32.56-.56.96-.56h2.96V596h2.08v4c0 .56-.48 1.04-1.04 1.04h-1.6l3.6 3.52 3.6-3.52H942c-.56 0-.96-.48-.96-1.04v-4h1.92v3.04H946c.4 0 .8.24.96.56z" stroke="#000" stroke-opacity="0" fill="#fff"/><path d="M820 646a6 6 0 0 1 6-6h228a6 6 0 0 1 6 6v48a6 6 0 0 1-6 6H826a6 6 0 0 1-6-6z" fill="none"/><use xlink:href="#l" transform="matrix(1,0,0,1,820,640) translate(67.73220486111111 38.083767361111114)"/><use xlink:href="#m" transform="matrix(1,0,0,1,820,640) translate(124.21006944444446 38.083767361111114)"/><path d="M520 806a6 6 0 0 1 6-6h228a6 6 0 0 1 6 6v48a6 6 0 0 1-6 6H526a6 6 0 0 1-6-6z" fill="none"/><use xlink:href="#n" transform="matrix(1,0,0,1,520,800) translate(4.803602430555557 21.95095486111111)"/><use xlink:href="#o" transform="matrix(1,0,0,1,520,800) translate(50.886501736111114 54.21657986111111)"/><path d="M1210 520h120v120h-120V520z" stroke="#000" stroke-opacity="0" fill="#7aa116"/><path d="M1301.24 584.37l.56-4.12c5.33 3.2 5.4 4.54 5.4 4.54s-.96.74-5.96-.43zm-2.9-.84c-9.22-2.77-21.98-8.65-27.15-11.1v-.07c0-1.94-1.62-3.62-3.64-3.62s-3.63 1.68-3.63 3.62c0 2 1.6 3.6 3.63 3.6.9 0 1.7-.33 2.26-.83 6.14 2.85 18.82 8.65 28.1 11.42l-3.7 25.8v.24c0 2.26-10.1 6.38-26.5 6.38-16.64 0-26.8-4.12-26.8-6.4v-.24l-7.68-55.78c6.62 4.54 20.83 6.98 34.48 6.98 13.57 0 27.78-2.44 34.4-6.98l-3.8 26.97zm-65.9-32.85c.15-1.93 11.46-9.66 35.28-9.66s35.13 7.73 35.3 9.66v.68c-1.38 4.45-16.08 9.15-35.3 9.15-19.3 0-34-4.7-35.3-9.14v-.68zm73.56.1c0-5.22-14.94-12.78-38.28-12.78-23.34 0-38.28 7.56-38.28 12.77l.16 1.1 8.32 60.8c.16 6.8 18.33 9.33 29.8 9.33 14.2 0 29.32-3.28 29.48-9.32l3.63-25.37c2.02.5 3.64.76 4.93.76 1.78 0 3-.42 3.7-1.34.66-.67.82-1.5.66-2.44-.32-2.1-2.83-4.36-7.83-7.22l3.54-25.12.16-1.17z" stroke="#000" stroke-opacity="0" fill="#fff"/><use xlink:href="#p" transform="matrix(1,0,0,1,1180,649) translate(3.953993055555557 21.52777777777778)"/><use xlink:href="#q" transform="matrix(1,0,0,1,1180,649) translate(38.18793402777778 21.52777777777778)"/><use xlink:href="#r" transform="matrix(1,0,0,1,1180,649) translate(124.24479166666667 21.52777777777778)"/><use xlink:href="#s" transform="matrix(1,0,0,1,1180,649) translate(7.588975694444457 53.79340277777778)"/><use xlink:href="#t" transform="matrix(1,0,0,1,1180,649) translate(82.66493055555556 53.79340277777778)"/><use xlink:href="#u" transform="matrix(1,0,0,1,1180,649) translate(11.419270833333343 86.05902777777777)"/><use xlink:href="#v" transform="matrix(1,0,0,1,1180,649) translate(61.64713541666668 86.05902777777777)"/><path d="M1150 786a6 6 0 0 1 6-6h228a6 6 0 0 1 6 6v48a6 6 0 0 1-6 6h-228a6 6 0 0 1-6-6z" fill="none"/><use xlink:href="#n" transform="matrix(1,0,0,1,1150,780) translate(4.803602430555557 21.95095486111111)"/><use xlink:href="#w" transform="matrix(1,0,0,1,1150,780) translate(100.48502604166666 54.21657986111111)"/><path d="M1560 520h120v120h-120V520z" stroke="#000" stroke-opacity="0" fill="#7aa116"/><path d="M1651.24 584.37l.56-4.12c5.33 3.2 5.4 4.54 5.4 4.54s-.96.74-5.96-.43zm-2.9-.84c-9.22-2.77-21.98-8.65-27.15-11.1v-.07c0-1.94-1.62-3.62-3.64-3.62s-3.63 1.68-3.63 3.62c0 2 1.6 3.6 3.63 3.6.9 0 1.7-.33 2.26-.83 6.14 2.85 18.82 8.65 28.1 11.42l-3.7 25.8v.24c0 2.26-10.1 6.38-26.5 6.38-16.64 0-26.8-4.12-26.8-6.4v-.24l-7.68-55.78c6.62 4.54 20.83 6.98 34.48 6.98 13.57 0 27.78-2.44 34.4-6.98l-3.8 26.97zm-65.9-32.85c.15-1.93 11.46-9.66 35.28-9.66s35.13 7.73 35.3 9.66v.68c-1.38 4.45-16.08 9.15-35.3 9.15-19.3 0-34-4.7-35.3-9.14v-.68zm73.56.1c0-5.22-14.94-12.78-38.28-12.78-23.34 0-38.28 7.56-38.28 12.77l.16 1.1 8.32 60.8c.16 6.8 18.33 9.33 29.8 9.33 14.2 0 29.32-3.28 29.48-9.32l3.63-25.37c2.02.5 3.64.76 4.93.76 1.78 0 3-.42 3.7-1.34.66-.67.82-1.5.66-2.44-.32-2.1-2.83-4.36-7.83-7.22l3.54-25.12.16-1.17z" stroke="#000" stroke-opacity="0" fill="#fff"/><use xlink:href="#p" transform="matrix(1,0,0,1,1530,649) translate(3.953993055555557 21.52777777777778)"/><use xlink:href="#q" transform="matrix(1,0,0,1,1530,649) translate(38.18793402777778 21.52777777777778)"/><use xlink:href="#r" transform="matrix(1,0,0,1,1530,649) translate(124.24479166666667 21.52777777777778)"/><use xlink:href="#s" transform="matrix(1,0,0,1,1530,649) translate(7.588975694444457 53.79340277777778)"/><use xlink:href="#t" transform="matrix(1,0,0,1,1530,649) translate(82.66493055555556 53.79340277777778)"/><use xlink:href="#u" transform="matrix(1,0,0,1,1530,649) translate(11.419270833333343 86.05902777777777)"/><use xlink:href="#v" transform="matrix(1,0,0,1,1530,649) translate(61.64713541666668 86.05902777777777)"/><path d="M1520 786a6 6 0 0 1 6-6h228a6 6 0 0 1 6 6v48a6 6 0 0 1-6 6h-228a6 6 0 0 1-6-6z" fill="none"/><use xlink:href="#n" transform="matrix(1,0,0,1,1520,780) translate(4.803602430555557 21.95095486111111)"/><use xlink:href="#x" transform="matrix(1,0,0,1,1520,780) translate(81.32269965277777 54.21657986111111)"/><path d="M1663.12 75.68v67.85h-14.84v-6.87c-1.68 2.4-3.64 4.38-6.44 5.67-3.08 1.3-6.16 2-9.52 2-3.92.1-8.12-1-11.48-3.1-3.36-2.18-6.16-5.16-7.84-8.65-1.96-4.08-3.08-8.35-2.8-12.73-.28-4.48.84-8.76 2.8-12.73 1.68-3.4 4.48-6.37 7.84-8.46 3.36-2.1 7.56-3.08 11.48-3 3.08 0 6.44.7 9.24 2 2.52 1.3 4.76 3.2 6.44 5.48v-22.9l15.12-4.56zm-17.92 54.52c1.96-2.4 3.08-5.77 3.08-10.25 0-4.38-.84-7.66-3.08-10.05-1.96-2.3-5.04-3.68-8.4-3.58-3.36-.2-6.44 1.2-8.68 3.48-1.96 2.4-3.08 5.67-3.08 10.05 0 4.38 1.12 7.76 3.08 10.25 1.96 2.38 5.32 3.78 8.68 3.68 3.64 0 6.44-1.3 8.4-3.58zm70.84-31.64c3.36 2.1 6.16 5.07 7.84 8.45 1.68 4 2.8 8.27 2.8 12.75 0 4.38-1.12 8.75-2.8 12.73-1.96 3.5-4.48 6.47-8.12 8.66-3.36 2.1-7.28 3.08-11.48 3.08-3.36 0-6.44-.7-9.52-2.1-2.52-1.28-4.76-3.27-6.16-5.66v6.97h-15.12V80.25l15.12-4.57v27.65c1.4-2.38 3.64-4.37 6.44-5.67 2.8-1.4 5.88-2.2 9.24-2.08 4.2-.1 8.12 1 11.76 2.98zm-7.56 31.54c2.24-2.5 3.08-5.87 3.08-10.35 0-4.38-.84-7.66-3.08-10.05-1.96-2.3-4.76-3.48-8.4-3.48-3.36-.2-6.44 1.2-8.68 3.58-1.96 2.5-2.8 5.77-2.8 10.05 0 4.48.84 7.86 2.8 10.25 2.24 2.38 5.32 3.78 8.68 3.58 3.36.2 6.44-1.2 8.4-3.58zm38.64-22.9v18.22c0 2.6.84 4.48 2.24 5.67 1.68 1.2 3.64 1.88 5.6 1.78 1.68 0 3.36-.3 5.04-.7v10.85c-2.8.9-5.6 1.3-8.68 1.2-6.16 0-10.92-1.6-14-4.78-3.36-3.28-5.04-7.86-5.04-13.83v-39.8l14.84-4.47v15.42H1760v10.44h-12.88z" stroke="#000" stroke-opacity="0" stroke-width=".25" fill="#262a38"/><path d="M1582.48 64.44c2.52 2.18 3.92 5.17 4.48 8.45 0 1.28-.56 2.18-1.4 3.87-.84 1.8-11.48 19-14.84 23.78-1.68 2.78-2.8 6.17-2.8 9.35 0 3.38 1.12 6.57 2.8 9.35 3.36 4.78 14 22.2 14.84 23.88.84 1.7 1.4 2.5 1.4 3.88-.56 3.2-1.96 6.18-4.48 8.37-2.52 2.28-5.6 3.88-8.96 4.07-1.4 0-2.52-.3-4.2-1.1-1.68-.88-20.72-10.53-25.76-13.52-.56-.2-.84-.5-1.4-.6l-25.2-14.02c.56 4.57 2.8 8.85 6.16 12.03.56.6 1.4 1.1 2.24 1.7-.84.3-1.4.5-1.96.9-5.04 2.97-23.8 12.92-25.48 13.72-1.96.8-2.8 1.2-4.48 1.2-3.36-.4-6.44-1.8-8.96-4.2-2.52-2.17-4.2-5.16-4.48-8.44 0-1.28.56-2.68 1.12-3.77 1.12-1.8 11.76-19.1 14.84-23.88 1.96-2.78 2.8-6.07 2.8-9.35 0-3.38-.84-6.57-2.8-9.35-3.08-4.98-14-22.3-14.84-24.08-.56-1.1-1.12-2.48-1.12-3.78.28-3.3 1.96-6.28 4.48-8.47 2.52-2.38 5.6-3.78 8.96-4.17 1.68.1 3.08.5 4.48 1.2 1.4.6 15.12 7.95 22.4 11.93l1.4.88c.84.4 1.12.6 1.68.8l.56.5L1550 89.8c-.84-5.47-3.64-10.34-8.4-13.72.56-.3 1.4-.5 1.96-.9 5.04-3 23.8-13.03 25.48-13.73 1.4-.7 2.8-1.1 4.2-1.2 3.64.4 6.72 1.8 9.24 4.2zm-47.6 51.93l5.32-5.08c.84-.8.84-1.8 0-2.6l-5.32-5.07c-.84-.7-1.96-.7-2.8 0l-5.6 5.08c-.56.8-.56 1.8 0 2.6l5.6 5.07c.56.7 1.96.7 2.8 0z" stroke="#000" stroke-opacity="0" stroke-width=".25" fill="#ff694a"/><path d="M1910 520h120v120h-120V520z" stroke="#000" stroke-opacity="0" fill="#7aa116"/><path d="M2001.24 584.37l.56-4.12c5.33 3.2 5.4 4.54 5.4 4.54s-.96.74-5.96-.43zm-2.9-.84c-9.22-2.77-21.98-8.65-27.15-11.1v-.07c0-1.94-1.62-3.62-3.64-3.62s-3.63 1.68-3.63 3.62c0 2 1.6 3.6 3.63 3.6.9 0 1.7-.33 2.26-.83 6.14 2.85 18.82 8.65 28.1 11.42l-3.7 25.8v.24c0 2.26-10.1 6.38-26.5 6.38-16.64 0-26.8-4.12-26.8-6.4v-.24l-7.68-55.78c6.62 4.54 20.83 6.98 34.48 6.98 13.57 0 27.78-2.44 34.4-6.98l-3.8 26.97zm-65.9-32.85c.15-1.93 11.46-9.66 35.28-9.66s35.13 7.73 35.3 9.66v.68c-1.38 4.45-16.08 9.15-35.3 9.15-19.3 0-34-4.7-35.3-9.14v-.68zm73.56.1c0-5.22-14.94-12.78-38.28-12.78-23.34 0-38.28 7.56-38.28 12.77l.16 1.1 8.32 60.8c.16 6.8 18.33 9.33 29.8 9.33 14.2 0 29.32-3.28 29.48-9.32l3.63-25.37c2.02.5 3.64.76 4.93.76 1.78 0 3-.42 3.7-1.34.66-.67.82-1.5.66-2.44-.32-2.1-2.83-4.36-7.83-7.22l3.54-25.12.16-1.17z" stroke="#000" stroke-opacity="0" fill="#fff"/><use xlink:href="#p" transform="matrix(1,0,0,1,1880,649) translate(3.953993055555557 21.52777777777778)"/><use xlink:href="#q" transform="matrix(1,0,0,1,1880,649) translate(38.18793402777778 21.52777777777778)"/><use xlink:href="#r" transform="matrix(1,0,0,1,1880,649) translate(124.24479166666667 21.52777777777778)"/><use xlink:href="#s" transform="matrix(1,0,0,1,1880,649) translate(7.588975694444457 53.79340277777778)"/><use xlink:href="#t" transform="matrix(1,0,0,1,1880,649) translate(82.66493055555556 53.79340277777778)"/><use xlink:href="#u" transform="matrix(1,0,0,1,1880,649) translate(11.419270833333343 86.05902777777777)"/><use xlink:href="#v" transform="matrix(1,0,0,1,1880,649) translate(61.64713541666668 86.05902777777777)"/><path d="M1840 786a6 6 0 0 1 6-6h228a6 6 0 0 1 6 6v48a6 6 0 0 1-6 6h-228a6 6 0 0 1-6-6z" fill="none"/><use xlink:href="#n" transform="matrix(1,0,0,1,1840,780) translate(4.803602430555557 21.95095486111111)"/><use xlink:href="#y" transform="matrix(1,0,0,1,1840,780) translate(96.03624131944444 54.21657986111111)"/><path d="M1580-120h80v80h-80v-80z" stroke="#000" stroke-opacity="0" fill="url(#z)"/><path d="M1641.12-60c-2.72 0-4.96-2.24-4.96-4.88 0-2.72 2.24-4.96 4.96-4.96 2.64 0 4.88 2.24 4.88 4.96 0 2.64-2.24 4.88-4.88 4.88zm0-11.84c-3.84 0-6.96 3.12-6.96 6.96 0 3.76 3.12 6.88 6.96 6.88 3.76 0 6.88-3.12 6.88-6.88 0-3.84-3.12-6.96-6.88-6.96zm0-3.12c-2.72 0-4.96-2.24-4.96-4.96 0-2.72 2.24-4.88 4.96-4.88 2.64 0 4.88 2.16 4.88 4.88 0 2.72-2.24 4.96-4.88 4.96zm0-11.84c-3.84 0-6.96 3.04-6.96 6.88s3.12 6.88 6.96 6.88c3.76 0 6.88-3.04 6.88-6.88s-3.12-6.88-6.88-6.88zm0-3.36c-2.72 0-4.96-2.24-4.96-4.96 0-2.64 2.24-4.88 4.96-4.88 2.64 0 4.88 2.24 4.88 4.88 0 2.72-2.24 4.96-4.88 4.96zm0-11.84c-3.84 0-6.96 3.12-6.96 6.88 0 3.84 3.12 6.96 6.96 6.96 3.76 0 6.88-3.12 6.88-6.96 0-3.76-3.12-6.88-6.88-6.88zm6.88-6v2h-18v52h18v2h-19.04c-.48 0-.96-.48-.96-1.04v-25.92h-15.92v-2.08H1628v-26c0-.48.48-.96.96-.96H1648zm-54 34.32v-12.64l11.84 6.32-11.84 6.32zm14.48-7.2l-15.04-8c-.32-.16-.64-.16-.96 0-.32.24-.48.56-.48.88v16c0 .32.16.64.48.88.16.08.32.08.48.08.24 0 .4 0 .48-.08l15.04-8c.32-.16.56-.48.56-.88s-.24-.72-.56-.88zM1594-94h12v-12h-12v12zm-1.04 2h14c.56 0 1.04-.48 1.04-1.04v-14c0-.48-.48-.96-1.04-.96h-14c-.48 0-.96.48-.96.96v14c0 .56.48 1.04.96 1.04zm7.28 38c-3.44 0-6.24-2.8-6.24-6.24 0-3.44 2.8-6.24 6.24-6.24 3.44 0 6.24 2.8 6.24 6.24 0 3.44-2.8 6.24-6.24 6.24zm0-14.48c-4.56 0-8.24 3.68-8.24 8.24 0 4.56 3.68 8.24 8.24 8.24 4.56 0 8.24-3.68 8.24-8.24 0-4.56-3.68-8.24-8.24-8.24z" stroke="#000" stroke-opacity="0" fill="#fff"/><path d="M1580 260h80v80h-80v-80z" stroke="#000" stroke-opacity="0" fill="url(#A)"/><path d="M1613.04 283.04h1.92v-2h-1.92v2zm-2.08.96v-4c0-.56.48-.96 1.04-.96h4c.56 0 .96.4.96.96v4c0 .56-.4 1.04-.96 1.04h-4c-.56 0-1.04-.48-1.04-1.04zm10.08-6.96h1.92v-2h-1.92v2zm-2 .96v-4c0-.56.4-.96.96-.96h4c.56 0 1.04.4 1.04.96v4c0 .56-.48 1.04-1.04 1.04h-4c-.56 0-.96-.48-.96-1.04zm3.92 9.04h2.08v-2h-2.08v2zm-.96-4h4c.56 0 .96.4.96.96v4c0 .56-.4 1.04-.96 1.04h-4c-.56 0-.96-.48-.96-1.04v-4c0-.56.4-.96.96-.96zm-2 10.48c-1.76 0-8.16-.08-12.32-1.12l10.16 16.08c.08.16.16.32.16.56v2.24c1.44.4 2.72.4 4 0v-2.24c0-.24.08-.4.16-.56l10.16-16.08c-4.16 1.04-10.56 1.12-12.32 1.12zm-15.76-2.8c-.16-.24-.24-.48-.24-.8 0-2.8 9.36-3.36 14.96-3.44v2c-6.8.08-11.04.88-12.48 1.44 1.52.72 6.16 1.6 13.52 1.6 7.36 0 11.92-.88 13.52-1.6-.64-.24-2-.64-4.64-.96l.24-2c6.08.8 6.88 1.92 6.88 2.96 0 .32-.08.56-.24.8L1624 309.28V312c0 .4-.24.8-.64.96-1.04.4-2.16.64-3.28.64-1.12 0-2.24-.24-3.44-.64-.4-.16-.64-.56-.64-.96v-2.72l-11.76-18.56zm22.72 28.88c.08.4 0 .8-.24 1.12l-6 6c-.24.16-.48.32-.72.32s-.48-.16-.72-.32l-6-6c-.24-.32-.32-.72-.24-1.12.16-.32.56-.56.96-.56h2.96V316h2.08v4c0 .56-.48 1.04-1.04 1.04h-1.6l3.6 3.52 3.6-3.52h-1.6c-.56 0-.96-.48-.96-1.04v-4h1.92v3.04h3.04c.4 0 .8.24.96.56z" stroke="#000" stroke-opacity="0" fill="#fff"/><path d="M1620 340.5V444a6 6 0 0 1-6 6h-338a6 6 0 0 0-6 6v47.62" stroke="#3a414a" fill="none"/><path d="M1620.47 340.5h-.94v-.5h.94z" stroke="#3a414a" stroke-width=".05" fill="#3a414a"/><path d="M1270 518.38l-4.63-14.26h9.27z" stroke="#3a414a" fill="#3a414a"/><path d="M1620 340.5v163.12" stroke="#3a414a" fill="none"/><path d="M1620.47 340.5h-.94v-.5h.94z" stroke="#3a414a" stroke-width=".05" fill="#3a414a"/><path d="M1620 518.38l-4.63-14.26h9.27z" stroke="#3a414a" fill="#3a414a"/><path d="M1620 340.5V444a6 6 0 0 0 6 6h338a6 6 0 0 1 6 6v47.62" stroke="#3a414a" fill="none"/><path d="M1620.47 340.5h-.94v-.5h.94z" stroke="#3a414a" stroke-width=".05" fill="#3a414a"/><path d="M1970 518.38l-4.63-14.26h9.27z" stroke="#3a414a" fill="#3a414a"/><path d="M1640-104a6 6 0 0 1 6-6h228a6 6 0 0 1 6 6v48a6 6 0 0 1-6 6h-228a6 6 0 0 1-6-6z" fill="none"/><use xlink:href="#B" transform="matrix(1,0,0,1,1640,-110) translate(84.14930555555556 38.083767361111114)"/><path d="M1660 276a6 6 0 0 1 6-6h228a6 6 0 0 1 6 6v48a6 6 0 0 1-6 6h-228a6 6 0 0 1-6-6z" fill="none"/><use xlink:href="#C" transform="matrix(1,0,0,1,1660,269.99999999999994) translate(30.487196180555557 38.083767361111114)"/><use xlink:href="#D" transform="matrix(1,0,0,1,1660,269.99999999999994) translate(126.11436631944444 38.083767361111114)"/><path d="M1620-39.5V82.85" stroke="#3a414a" fill="none"/><path d="M1620.47-39.5h-.94v-.5h.94z" stroke="#3a414a" stroke-width=".05" fill="#3a414a"/><path d="M1620 97.6l-4.63-14.25h9.27z" stroke="#3a414a" fill="#3a414a"/><path d="M1620 141.12v102.5" stroke="#3a414a" fill="none"/><path d="M1620.47 140.97v.16h-.94v-.86z" stroke="#3a414a" stroke-width=".05" fill="#3a414a"/><path d="M1620 258.38l-4.63-14.26h9.27z" stroke="#3a414a" fill="#3a414a"/><path d="M1360 366a6 6 0 0 1 6-6h228a6 6 0 0 1 6 6v48a6 6 0 0 1-6 6h-228a6 6 0 0 1-6-6z" fill="none"/><use xlink:href="#E" transform="matrix(1,0,0,1,1360,360) translate(16.52235243055557 38.083767361111114)"/><path d="M362.85 580h200.77" stroke="#3a414a" fill="none"/><path d="M362.86 580.48h-.5v-.96h.5z" stroke="#3a414a" stroke-width=".05" fill="#3a414a"/><path d="M578.38 580l-14.26 4.63v-9.26z" stroke="#3a414a" fill="#3a414a"/><path d="M700.5 580h183.12" stroke="#3a414a" fill="none"/><path d="M700.5 580.48h-.5v-.96h.5z" stroke="#3a414a" stroke-width=".05" fill="#3a414a"/><path d="M898.38 580l-14.26 4.63v-9.26z" stroke="#3a414a" fill="#3a414a"/><path d="M980.5 580h213.12" stroke="#3a414a" fill="none"/><path d="M980.5 580.48h-.5v-.96h.5z" stroke="#3a414a" stroke-width=".05" fill="#3a414a"/><path d="M1208.38 580l-14.26 4.63v-9.26z" stroke="#3a414a" fill="#3a414a"/><path d="M3305.3 784.6l-17.82 10.18 17.82 10.17c4.42 2.54 6 8.22 3.48 12.7-2.7 4.5-8.37 6-12.78 3.45l-31.87-18.4c-3-1.64-4.74-4.78-4.58-8.22 0-.9 0-1.5.32-2.24.63-2.4 2.05-4.34 4.26-5.54l31.87-18.24c4.4-2.7 10.1-1.05 12.78 3.44 2.52 4.33 1.1 10.02-3.32 12.56-.16 0-.16 0-.16.15zm-16.72 49.5l-31.87-18.23c-1.4-.9-2.83-1.2-4.56-1.35-5.2 0-9.47 4.2-9.47 9.42v36.5c.16 4.93 4.1 8.82 9 9.12 5.2.15 9.46-3.9 9.62-9.12v-20.5l17.82 10.33c4.57 2.54 10.25 1.04 12.78-3.44 2.52-4.5 1.1-10.17-3.32-12.87zm-36.76-35.73l-13.25 13.16c-.47.45-.95.6-1.58.6h-3.95c-.63 0-1.1-.15-1.74-.6l-13.08-13.16c-.48-.45-.63-1.05-.63-1.65v-3.88c0-.6.14-1.2.62-1.65l13.1-13.17c.62-.45 1.1-.6 1.73-.75h3.94c.62.15 1.1.3 1.57.75l13.25 13.16c.47.44.63 1.04.63 1.63v3.9c0 .6-.15 1.2-.63 1.64zm-10.57-3.6c0-.74-.3-1.2-.63-1.64l-3.94-3.88c-.48-.45-.95-.6-1.58-.6h-.16c-.63 0-1.26.15-1.74.6l-3.78 3.88c-.47.45-.63.9-.63 1.65v.15c0 .6.14 1.05.62 1.64l3.94 3.74c.48.46.95.6 1.58.6h.16c.63 0 1.1-.14 1.58-.6l3.94-3.88c.32-.44.63-.9.63-1.64zm-59.8-39.32l31.88 18.24c1.42.74 2.84 1.2 4.57 1.2 5.2 0 9.47-4.05 9.47-9.28v-36.5c-.16-4.93-4.1-8.97-9-9.12-5.2-.15-9.62 3.9-9.78 9.12v20.5l-17.84-10.33c-4.4-2.55-10.1-1.05-12.62 3.43-2.68 4.5-1.1 10.17 3.32 12.72zm69.9 19.44c1.9.14 3.63-.16 5.36-1.2l31.72-18.25c4.58-2.7 6-8.38 3.47-12.87-2.53-4.48-8.37-5.98-12.78-3.44l-17.83 10.32v-20.34c-.17-5.08-4.1-8.97-9-9.12-5.2-.15-9.47 3.9-9.63 9.12v36.5c-.16 4.93 3.63 8.97 8.68 9.27zm-32.66 39.77c-1.9-.15-3.64.15-5.37 1.2l-31.87 18.24c-4.42 2.56-6 8.24-3.32 12.73 2.53 4.48 8.2 5.98 12.63 3.44l17.82-10.17v20.34c.15 5.08 4.1 8.97 9.14 9.12 5.05.15 9.47-3.9 9.63-9.12v-36.5c0-4.93-3.8-8.97-8.68-9.27zm-8.53-17.2c1.26-4.2-.47-8.52-4.42-10.77l-31.7-18.24c-4.58-2.55-10.26-1.05-12.8 3.44-2.5 4.48-.93 10.17 3.48 12.7l17.67 10.18-17.67 10.17c-4.57 2.54-6 8.22-3.47 12.7 2.53 4.5 8.36 6 12.78 3.45l31.7-18.4c2.22-1.2 3.64-2.84 4.27-5.23zm100.34-60.57h-1.4v1.8h1.4c.64 0 1.12-.3 1.12-.9 0-.6-.48-.9-1.1-.9zm-3.14-1.64h3.15c1.75 0 3 1.04 3 2.54 0 .75-.46 1.5-1.25 1.94l1.26 1.8v.45h-1.73l-1.26-1.8h-1.4v1.78h-1.74zm9 3.58v-.6c-.17-3.28-2.85-5.83-6.16-5.83-3.47 0-5.84 2.7-5.84 6.44 0 3.44 2.36 6.14 5.84 6.14h.63c3.15-.15 5.68-3 5.52-6.14zm1.4 0c0 4.2-2.83 7.63-7.56 7.63-4.74 0-7.42-3.6-7.42-7.63 0-4.18 2.84-7.77 7.42-7.77 4.73 0 7.57 3.44 7.57 7.77z" stroke="#000" stroke-opacity="0" stroke-width="1.08" fill="#29b5e8"/><path d="M500-274a6 6 0 0 1 6-6h148a6 6 0 0 1 6 6v68a6 6 0 0 1-6 6H506a6 6 0 0 1-6-6z" stroke="#000" stroke-width="2" fill="#fff"/><use xlink:href="#l" transform="matrix(1,0,0,1,505,-275) translate(15.91796875 43.40277777777778)"/><use xlink:href="#F" transform="matrix(1,0,0,1,505,-275) translate(72.39583333333334 43.40277777777778)"/><path d="M2546 545.03h68c4 0 6 1.96 6 5.95 0 4-2 6.03-6 6.03h-68c-4 0-6-2.02-6-6.02 0-4 2-5.95 6-5.95z" stroke="#4a90e2" stroke-width="4" fill-opacity="0"/><path d="M2540 557h80l-10 63h-60zM2550 545.03c20-13.35 40-13.35 60 0" stroke="#4a90e2" stroke-width="4" fill-opacity="0"/><path d="M2460 666a6 6 0 0 1 6-6h228a6 6 0 0 1 6 6v48a6 6 0 0 1-6 6h-228a6 6 0 0 1-6-6z" fill="none"/><use xlink:href="#G" transform="matrix(1,0,0,1,2460,660) translate(19.441189236111114 21.95095486111111)"/><use xlink:href="#H" transform="matrix(1,0,0,1,2460,660) translate(134.92513020833334 21.95095486111111)"/><use xlink:href="#I" transform="matrix(1,0,0,1,2460,660) translate(80.76388888888889 54.21657986111111)"/><path d="M1543 1014.2a10.35 10.35 0 0 1 0-10.4l34-58.6a10.4 10.4 0 0 1 9-5.2h68a10.4 10.4 0 0 1 9 5.2l34 58.6a10.35 10.35 0 0 1 0 10.4l-34 58.6a10.4 10.4 0 0 1-9 5.2h-68a10.4 10.4 0 0 1-9-5.2z" stroke="#000" stroke-width="2" fill="#fff"/><g><use xlink:href="#J" transform="matrix(1,0,0,1,1545,945) translate(7.39974826388889 73.52777777777777)"/><use xlink:href="#K" transform="matrix(1,0,0,1,1545,945) translate(61.70747395833333 73.52777777777777)"/></g><path d="M2640 1068c0 6.63-26.86 12-60 12s-60-5.37-60-12v-96c0-6.63 26.86-12 60-12s60 5.37 60 12z" stroke="#000" stroke-width="2" fill="#fff"/><path d="M2640 972c0 6.63-26.86 12-60 12s-60-5.37-60-12" stroke="#000" stroke-width="2" fill="none"/><g><use xlink:href="#L" transform="matrix(1,0,0,1,2525,989) translate(14.548611111111114 34.96527777777778)"/><use xlink:href="#M" transform="matrix(1,0,0,1,2525,989) translate(32.78862847222222 67.23090277777777)"/></g><path d="M2828.03 750h93.94c5.4 0 8.03 2.64 8.03 8.03v93.94c0 5.4-2.64 8.03-8.03 8.03h-93.94c-5.4 0-8.03-2.64-8.03-8.03v-93.94c0-5.4 2.64-8.03 8.03-8.03z" stroke="#4a90e2" stroke-width="4" fill-opacity="0"/><path d="M2820 784.98h110M2820 819.96h110M2854.98 750v110M2889.96 750v110" stroke="#4a90e2" stroke-width="3"/><path d="M2030.5 580l494.34-2.42" stroke="#3a414a" fill="none"/><path d="M2030.52 580.47h-.52v-.95h.5z" stroke="#3a414a" stroke-width=".05" fill="#3a414a"/><path d="M2539.6 577.5l-14.23 4.7-.05-9.26z" stroke="#3a414a" fill="#3a414a"/><path d="M1699.9 1009l802.72 10.78" stroke="#3a414a" fill="none"/><path d="M1699.9 1008.53v.95h-.54l.03-.48-.04-.48z" stroke="#3a414a" stroke-width=".05" fill="#3a414a"/><path d="M2517.38 1019.98l-14.33 4.44.13-9.27z" stroke="#3a414a" fill="#3a414a"/><path d="M2760 886a6 6 0 0 1 6-6h228a6 6 0 0 1 6 6v48a6 6 0 0 1-6 6h-228a6 6 0 0 1-6-6z" fill="none"/><g><use xlink:href="#N" transform="matrix(1,0,0,1,2760,880) translate(42.536892361111114 38.083767361111114)"/><use xlink:href="#O" transform="matrix(1,0,0,1,2760,880) translate(128.59375 38.083767361111114)"/></g><path d="M3118.9 906a6 6 0 0 1 6-6h228a6 6 0 0 1 6 6v48a6 6 0 0 1-6 6h-228a6 6 0 0 1-6-6z" fill="none"/><g><use xlink:href="#P" transform="matrix(1,0,0,1,3118.8845749758034,900) translate(60.75520833333334 38.083767361111114)"/></g><path d="M2619.27 577.5h93.12a6 6 0 0 1 6 6V799a6 6 0 0 0 6 6h77.22" stroke="#3a414a" fill="none"/><path d="M2619.3 577.98h-.6l.15-.96h.44z" stroke="#3a414a" stroke-width=".05" fill="#3a414a"/><path d="M2816.38 805l-14.26 4.63v-9.26z" stroke="#3a414a" fill="#3a414a"/><path d="M2641.5 1020h70.9a6 6 0 0 0 6-6V811a6 6 0 0 1 6-6h77.22" stroke="#3a414a" fill="none"/><path d="M2641.5 1020.48h-.5v-.96h.5z" stroke="#3a414a" stroke-width=".05" fill="#3a414a"/><path d="M2816.38 805l-14.26 4.63v-9.26z" stroke="#3a414a" fill="#3a414a"/><path d="M2932.5 805h215.78" stroke="#3a414a" fill="none"/><path d="M2932.5 805.48h-.5v-.96h.5z" stroke="#3a414a" stroke-width=".05" fill="#3a414a"/><path d="M3163.05 805l-14.27 4.63v-9.26z" stroke="#3a414a" fill="#3a414a"/><path d="M2260-274a6 6 0 0 1 6-6h148a6 6 0 0 1 6 6v68a6 6 0 0 1-6 6h-148a6 6 0 0 1-6-6z" stroke="#000" stroke-width="2" fill="#fff"/><g><use xlink:href="#Q" transform="matrix(1,0,0,1,2265,-275) translate(20.383029513888886 43.40277777777778)"/></g><defs><path d="M180 0v-1490h190v1322h690V0H180" id="R"/><path d="M471 26C259 26 90-98 90-318c0-256 228-303 435-329 202-27 287-16 287-108 0-139-79-219-234-219-161 0-248 86-283 164l-173-57c86-203 278-265 451-265 150 0 419 46 419 395V0H815v-152h-12C765-73 660 26 471 26zm31-159c199 0 310-134 310-271v-155c-30 35-226 55-295 64-131 17-246 59-246 186 0 116 97 176 231 176" id="S"/><path d="M158 418v-1536h174v179h20c37-59 106-193 324-193 279 0 474 222 474 576 0 356-194 580-473 580-213 0-288-135-325-197h-14v591H158zm492-555c209 0 317-186 317-421 0-232-105-413-317-413-206 0-314 166-314 413 0 249 111 421 314 421" id="T"/><path d="M598-1118v154H368v674c0 100 37 144 132 144 23 0 62-6 92-12L629-6c-37 13-88 20-134 20-193 0-307-107-307-290v-688H20v-154h168v-266h180v266h230" id="U"/><path d="M613 24c-304 0-509-231-509-576 0-350 205-580 509-580 305 0 511 230 511 580 0 345-206 576-511 576zm0-161c226 0 329-195 329-415 0-222-103-419-329-419-223 0-326 196-326 419 0 220 103 415 326 415" id="V"/><g id="a"><use transform="matrix(0.010850694444444444,0,0,0.010850694444444444,0,0)" xlink:href="#R"/><use transform="matrix(0.010850694444444444,0,0,0.010850694444444444,12.565104166666666,0)" xlink:href="#S"/><use transform="matrix(0.010850694444444444,0,0,0.010850694444444444,25.04340277777778,0)" xlink:href="#T"/><use transform="matrix(0.010850694444444444,0,0,0.010850694444444444,38.650173611111114,0)" xlink:href="#U"/><use transform="matrix(0.010850694444444444,0,0,0.010850694444444444,45.70312500000001,0)" xlink:href="#V"/><use transform="matrix(0.010850694444444444,0,0,0.010850694444444444,59.027777777777786,0)" xlink:href="#T"/></g><path d="M645 0H180v-1490h484c435 0 692 280 692 742 0 466-257 748-711 748zM370-168h263c363 0 539-218 539-580 0-358-176-574-521-574H370v1154" id="W"/><path d="M628 24c-324 0-524-230-524-574 0-343 198-582 503-582 237 0 487 146 487 559v75H286c9 234 145 362 343 362 132 0 231-58 273-172l174 48C1024-91 857 24 628 24zM287-650h624c-17-190-120-322-304-322-192 0-309 151-320 322" id="X"/><path d="M481 0L54-1118h197c107 314 236 620 325 951 87-331 217-637 324-951h197L670 0H481" id="Y"/><path d="M158 0v-1118h180V0H158zm91-1301c-68 0-125-53-125-119s57-119 125-119c69 0 126 53 126 119s-57 119-126 119" id="Z"/><path d="M613 24c-304 0-509-231-509-576 0-350 205-580 509-580 216 0 392 114 453 309l-173 49c-33-115-133-197-280-197-223 0-326 196-326 419 0 220 103 415 326 415 150 0 252-85 285-206l172 49C1010-95 832 24 613 24" id="aa"/><g id="b"><use transform="matrix(0.010850694444444444,0,0,0.010850694444444444,0,0)" xlink:href="#W"/><use transform="matrix(0.010850694444444444,0,0,0.010850694444444444,16.03732638888889,0)" xlink:href="#X"/><use transform="matrix(0.010850694444444444,0,0,0.010850694444444444,28.559027777777775,0)" xlink:href="#Y"/><use transform="matrix(0.010850694444444444,0,0,0.010850694444444444,41.048177083333336,0)" xlink:href="#Z"/><use transform="matrix(0.010850694444444444,0,0,0.010850694444444444,46.43012152777778,0)" xlink:href="#aa"/><use transform="matrix(0.010850694444444444,0,0,0.010850694444444444,59.12543402777778,0)" xlink:href="#X"/></g><path fill="#333" d="M212-179c-10-28-35-45-73-45-59 0-87 40-87 99 0 60 29 101 89 101 43 0 62-24 78-52l27 14C228-24 195 4 139 4 59 4 22-46 18-125c-6-104 99-153 187-111 19 9 31 26 39 46" id="ab"/><path fill="#333" d="M233-177c-1 41-23 64-60 70L243 0h-38l-65-103H63V0H30v-248c88 3 205-21 203 71zM63-129c60-2 137 13 137-47 0-61-80-42-137-45v92" id="ac"/><path fill="#333" d="M140-251c81 0 123 46 123 126C263-46 219 4 140 4 59 4 17-45 17-125s42-126 123-126zm0 227c63 0 89-41 89-101s-29-99-89-99c-61 0-89 39-89 99S79-25 140-24" id="ad"/><path fill="#333" d="M190 0L58-211 59 0H30v-248h39L202-35l-2-213h31V0h-41" id="ae"/><g id="d"><use transform="matrix(0.07222222222222222,0,0,0.07222222222222222,0,0)" xlink:href="#ab"/><use transform="matrix(0.07222222222222222,0,0,0.07222222222222222,18.705555555555552,0)" xlink:href="#ac"/><use transform="matrix(0.07222222222222222,0,0,0.07222222222222222,37.411111111111104,0)" xlink:href="#ad"/><use transform="matrix(0.07222222222222222,0,0,0.07222222222222222,57.633333333333326,0)" xlink:href="#ae"/></g><path d="M52 0l541-1490h220L1361 0h-200l-149-416H398L254 0H52zm404-582h497c-103-290-145-390-251-756-108 377-145 460-246 756" id="af"/><path d="M158 0v-1118h175l1 205c55-151 181-225 313-225 147 0 245 90 285 228 53-141 190-228 352-228 194 0 352 125 352 384V0h-181v-749c0-161-105-225-225-225-151 0-243 103-243 244V0H807v-767c0-124-93-207-219-207-131 0-250 92-250 270V0H158" id="ag"/><path d="M126 0v-134l627-806v-11H146v-167h839v143L376-178v11h629V0H126" id="ah"/><path d="M338-670V0H158v-1118h173l1 207c72-158 192-221 342-221 226 0 378 139 378 422V0H872v-695c0-172-96-275-252-275-161 0-282 109-282 300" id="ai"/><g id="e"><use transform="matrix(0.010850694444444444,0,0,0.010850694444444444,0,0)" xlink:href="#af"/><use transform="matrix(0.010850694444444444,0,0,0.010850694444444444,15.33203125,0)" xlink:href="#ag"/><use transform="matrix(0.010850694444444444,0,0,0.010850694444444444,34.79817708333333,0)" xlink:href="#S"/><use transform="matrix(0.010850694444444444,0,0,0.010850694444444444,47.27647569444444,0)" xlink:href="#ah"/><use transform="matrix(0.010850694444444444,0,0,0.010850694444444444,59.22309027777778,0)" xlink:href="#V"/><use transform="matrix(0.010850694444444444,0,0,0.010850694444444444,72.54774305555554,0)" xlink:href="#ai"/></g><path d="M657 26c-323 0-524-166-541-416h195c15 169 171 246 346 246 202 0 356-106 356-265 5-203-294-238-475-293-239-73-380-191-380-389 0-252 224-419 512-419 294 0 499 171 508 396H992c-17-145-151-228-328-228-193 0-321 102-321 242 0 156 175 211 284 241l149 41c160 44 422 134 422 412 0 244-197 432-541 432" id="aj"/><path d="M338-1490V0H158v-1490h180" id="ak"/><g id="f"><use transform="matrix(0.010850694444444444,0,0,0.010850694444444444,0,0)" xlink:href="#aj"/><use transform="matrix(0.010850694444444444,0,0,0.010850694444444444,14.2578125,0)" xlink:href="#Z"/><use transform="matrix(0.010850694444444444,0,0,0.010850694444444444,19.639756944444443,0)" xlink:href="#ag"/><use transform="matrix(0.010850694444444444,0,0,0.010850694444444444,39.10590277777777,0)" xlink:href="#T"/><use transform="matrix(0.010850694444444444,0,0,0.010850694444444444,52.7126736111111,0)" xlink:href="#ak"/><use transform="matrix(0.010850694444444444,0,0,0.010850694444444444,58.09461805555554,0)" xlink:href="#X"/></g><path d="M158 0v-1118h174v172h12c41-113 157-188 290-188 26 0 70 2 91 3v181c-11-2-60-10-108-10-161 0-279 109-279 260V0H158" id="al"/><path d="M611 442c-248 0-391-105-460-228l146-94c47 65 117 165 314 165 178 0 307-82 307-266v-224h-17C863-141 792-18 576-18c-268 0-472-195-472-546 0-346 197-568 476-568 216 0 288 133 326 193h17v-179h175V29c0 289-215 413-487 413zm-5-620c203 0 314-146 314-390 0-237-108-403-314-403-213 0-319 180-319 403 0 230 109 390 319 390" id="am"/><g id="g"><use transform="matrix(0.010850694444444444,0,0,0.010850694444444444,0,0)" xlink:href="#aj"/><use transform="matrix(0.010850694444444444,0,0,0.010850694444444444,14.2578125,0)" xlink:href="#U"/><use transform="matrix(0.010850694444444444,0,0,0.010850694444444444,21.31076388888889,0)" xlink:href="#V"/><use transform="matrix(0.010850694444444444,0,0,0.010850694444444444,34.635416666666664,0)" xlink:href="#al"/><use transform="matrix(0.010850694444444444,0,0,0.010850694444444444,43.00130208333333,0)" xlink:href="#S"/><use transform="matrix(0.010850694444444444,0,0,0.010850694444444444,55.47960069444444,0)" xlink:href="#am"/><use transform="matrix(0.010850694444444444,0,0,0.010850694444444444,69.10807291666666,0)" xlink:href="#X"/></g><g id="h"><use transform="matrix(0.010850694444444444,0,0,0.010850694444444444,0,0)" xlink:href="#aj"/><use transform="matrix(0.010850694444444444,0,0,0.010850694444444444,14.2578125,0)" xlink:href="#X"/><use transform="matrix(0.010850694444444444,0,0,0.010850694444444444,27.213541666666664,0)" xlink:href="#al"/><use transform="matrix(0.010850694444444444,0,0,0.010850694444444444,35.92664930555555,0)" xlink:href="#Y"/><use transform="matrix(0.010850694444444444,0,0,0.010850694444444444,48.41579861111111,0)" xlink:href="#Z"/><use transform="matrix(0.010850694444444444,0,0,0.010850694444444444,53.79774305555556,0)" xlink:href="#aa"/><use transform="matrix(0.010850694444444444,0,0,0.010850694444444444,66.49305555555554,0)" xlink:href="#X"/></g><path d="M218-607c0-325 108-727 258-974h175c-155 315-250 682-250 974 0 265 78 531 250 886H476C306-10 218-315 218-607" id="an"/><g id="i"><use transform="matrix(0.010850694444444444,0,0,0.010850694444444444,0,0)" xlink:href="#an"/><use transform="matrix(0.010850694444444444,0,0,0.010850694444444444,8.10546875,0)" xlink:href="#af"/><use transform="matrix(0.010850694444444444,0,0,0.010850694444444444,23.4375,0)" xlink:href="#ag"/><use transform="matrix(0.010850694444444444,0,0,0.010850694444444444,42.90364583333333,0)" xlink:href="#S"/><use transform="matrix(0.010850694444444444,0,0,0.010850694444444444,55.38194444444444,0)" xlink:href="#ah"/><use transform="matrix(0.010850694444444444,0,0,0.010850694444444444,67.32855902777777,0)" xlink:href="#V"/><use transform="matrix(0.010850694444444444,0,0,0.010850694444444444,80.65321180555554,0)" xlink:href="#ai"/></g><path d="M635 20c-292 0-500-160-510-396h192c11 142 145 229 315 229 187 0 323-105 323-260 0-161-125-274-346-274H488v-165h121c174 0 294-100 294-254 0-148-104-245-266-245-152 0-291 85-297 230H157c8-234 222-395 484-395 278 0 448 188 448 400 0 168-95 291-247 336v12c190 31 301 169 301 357 0 244-216 425-508 425" id="ao"/><path d="M96 279C273-86 346-350 346-607c0-292-95-659-250-974h175c150 246 258 650 258 974 0 297-91 602-258 886H96" id="ap"/><g id="j"><use transform="matrix(0.010850694444444444,0,0,0.010850694444444444,0,0)" xlink:href="#aj"/><use transform="matrix(0.010850694444444444,0,0,0.010850694444444444,14.2578125,0)" xlink:href="#ao"/><use transform="matrix(0.010850694444444444,0,0,0.010850694444444444,27.98394097222222,0)" xlink:href="#ap"/></g><linearGradient gradientUnits="userSpaceOnUse" id="k" x1="899.5" y1="620.5" x2="980.5" y2="539.5"><stop offset="0%" stop-color="#4d27a8"/><stop offset="100%" stop-color="#a166ff"/></linearGradient><path d="M458 0L52-1490h194c108 439 233 855 324 1313 92-459 221-873 331-1313h216c110 438 234 854 330 1307 92-455 216-869 323-1307h196L1558 0h-221l-256-944c-26-95-50-200-73-331-22 122-44 223-73 331L680 0H458" id="aq"/><g id="l"><use transform="matrix(0.010850694444444444,0,0,0.010850694444444444,0,0)" xlink:href="#af"/><use transform="matrix(0.010850694444444444,0,0,0.010850694444444444,14.073350694444445,0)" xlink:href="#aq"/><use transform="matrix(0.010850694444444444,0,0,0.010850694444444444,35.970052083333336,0)" xlink:href="#aj"/></g><path d="M789 20c-398 0-667-293-667-764 0-473 273-766 655-766 315 0 558 198 612 487h-196c-61-191-204-311-415-311-262 0-471 207-471 590 0 380 208 588 482 588 249 0 420-165 425-427H828v-166h572v163c0 370-256 606-611 606" id="ar"/><path d="M537 14c-226 0-379-139-379-422v-710h180v695c0 172 97 275 253 275 160 0 281-109 281-300v-670h181V0H879v-209C806-46 684 14 537 14" id="as"/><g id="m"><use transform="matrix(0.010850694444444444,0,0,0.010850694444444444,0,0)" xlink:href="#ar"/><use transform="matrix(0.010850694444444444,0,0,0.010850694444444444,16.57986111111111,0)" xlink:href="#ak"/><use transform="matrix(0.010850694444444444,0,0,0.010850694444444444,21.961805555555557,0)" xlink:href="#as"/><use transform="matrix(0.010850694444444444,0,0,0.010850694444444444,35.10199652777778,0)" xlink:href="#X"/></g><path d="M538 24C308 24 148-78 108-271l171-41c32 123 123 178 257 178 156 0 256-77 256-169 0-77-54-128-164-154l-186-44c-203-48-300-148-300-305 0-192 176-326 414-326 230 0 351 112 402 269l-163 42c-31-80-94-158-238-158-133 0-233 69-233 162 0 83 57 129 188 160l169 40c203 48 298 149 298 302 0 196-179 339-441 339" id="at"/><path d="M295 13c-75 0-135-60-135-135s60-135 135-135 135 60 135 135S370 13 295 13zm0-809c-75 0-135-60-135-135s60-135 135-135 135 60 135 135-60 135-135 135" id="au"/><path d="M692-1560L212 224H46l480-1784h166" id="av"/><path d="M577 24c-279 0-473-224-473-580 0-354 195-576 474-576 218 0 287 134 324 193h14v-551h180V0H922v-173h-20C865-111 790 24 577 24zm27-161c203 0 314-172 314-421 0-247-108-413-314-413-212 0-317 181-317 413 0 235 108 421 317 421" id="aw"/><path d="M934 0v166H0V0h934" id="ax"/><path d="M158 0v-1490h180v865h22l478-493h223L593-638 1096 0H865L456-523 338-412V0H158" id="ay"/><path d="M338-670V0H158v-1490h180v566c73-149 190-208 336-208 226 0 379 139 379 422V0H872v-695c0-172-96-275-252-275-161 0-282 109-282 300" id="az"/><g id="n"><use transform="matrix(0.010850694444444444,0,0,0.010850694444444444,0,0)" xlink:href="#at"/><use transform="matrix(0.010850694444444444,0,0,0.010850694444444444,11.729600694444445,0)" xlink:href="#ao"/><use transform="matrix(0.010850694444444444,0,0,0.010850694444444444,25.455729166666664,0)" xlink:href="#au"/><use transform="matrix(0.010850694444444444,0,0,0.010850694444444444,31.85763888888889,0)" xlink:href="#av"/><use transform="matrix(0.010850694444444444,0,0,0.010850694444444444,39.865451388888886,0)" xlink:href="#av"/><use transform="matrix(0.010850694444444444,0,0,0.010850694444444444,47.873263888888886,0)" xlink:href="#aw"/><use transform="matrix(0.010850694444444444,0,0,0.010850694444444444,61.48003472222221,0)" xlink:href="#S"/><use transform="matrix(0.010850694444444444,0,0,0.010850694444444444,73.95833333333333,0)" xlink:href="#U"/><use transform="matrix(0.010850694444444444,0,0,0.010850694444444444,81.33680555555554,0)" xlink:href="#S"/><use transform="matrix(0.010850694444444444,0,0,0.010850694444444444,93.81510416666666,0)" xlink:href="#ax"/><use transform="matrix(0.010850694444444444,0,0,0.010850694444444444,104.69835069444444,0)" xlink:href="#ak"/><use transform="matrix(0.010850694444444444,0,0,0.010850694444444444,110.08029513888889,0)" xlink:href="#S"/><use transform="matrix(0.010850694444444444,0,0,0.010850694444444444,122.55859375,0)" xlink:href="#ay"/><use transform="matrix(0.010850694444444444,0,0,0.010850694444444444,134.25564236111111,0)" xlink:href="#X"/><use transform="matrix(0.010850694444444444,0,0,0.010850694444444444,147.21137152777777,0)" xlink:href="#ax"/><use transform="matrix(0.010850694444444444,0,0,0.010850694444444444,158.09461805555554,0)" xlink:href="#az"/><use transform="matrix(0.010850694444444444,0,0,0.010850694444444444,171.23480902777777,0)" xlink:href="#V"/><use transform="matrix(0.010850694444444444,0,0,0.010850694444444444,184.55946180555554,0)" xlink:href="#as"/><use transform="matrix(0.010850694444444444,0,0,0.010850694444444444,197.69965277777777,0)" xlink:href="#at"/><use transform="matrix(0.010850694444444444,0,0,0.010850694444444444,209.42925347222223,0)" xlink:href="#X"/><use transform="matrix(0.010850694444444444,0,0,0.010850694444444444,222.38498263888889,0)" xlink:href="#av"/></g><g id="o"><use transform="matrix(0.010850694444444444,0,0,0.010850694444444444,0,0)" xlink:href="#ak"/><use transform="matrix(0.010850694444444444,0,0,0.010850694444444444,5.381944444444445,0)" xlink:href="#S"/><use transform="matrix(0.010850694444444444,0,0,0.010850694444444444,17.860243055555557,0)" xlink:href="#ai"/><use transform="matrix(0.010850694444444444,0,0,0.010850694444444444,30.989583333333336,0)" xlink:href="#aw"/><use transform="matrix(0.010850694444444444,0,0,0.010850694444444444,44.59635416666667,0)" xlink:href="#Z"/><use transform="matrix(0.010850694444444444,0,0,0.010850694444444444,49.97829861111111,0)" xlink:href="#ai"/><use transform="matrix(0.010850694444444444,0,0,0.010850694444444444,63.1076388888889,0)" xlink:href="#am"/><use transform="matrix(0.010850694444444444,0,0,0.010850694444444444,76.73611111111111,0)" xlink:href="#ax"/><use transform="matrix(0.010850694444444444,0,0,0.010850694444444444,86.87065972222223,0)" xlink:href="#ah"/><use transform="matrix(0.010850694444444444,0,0,0.010850694444444444,98.81727430555557,0)" xlink:href="#V"/><use transform="matrix(0.010850694444444444,0,0,0.010850694444444444,112.14192708333334,0)" xlink:href="#ai"/><use transform="matrix(0.010850694444444444,0,0,0.010850694444444444,125.2712673611111,0)" xlink:href="#X"/></g><g id="p"><use transform="matrix(0.010850694444444444,0,0,0.010850694444444444,0,0)" xlink:href="#aj"/><use transform="matrix(0.010850694444444444,0,0,0.010850694444444444,14.2578125,0)" xlink:href="#ao"/></g><path d="M370-1490V0H180v-1490h190" id="aA"/><path d="M677 24c-213 0-288-135-325-197h-20V0H158v-1490h180v551h14c37-59 106-193 324-193 279 0 474 222 474 576 0 356-194 580-473 580zm-27-161c209 0 317-186 317-421 0-232-105-413-317-413-206 0-314 166-314 413 0 249 111 421 314 421" id="aB"/><g id="q"><use transform="matrix(0.010850694444444444,0,0,0.010850694444444444,0,0)" xlink:href="#aA"/><use transform="matrix(0.010850694444444444,0,0,0.010850694444444444,5.967881944444445,0)" xlink:href="#aa"/><use transform="matrix(0.010850694444444444,0,0,0.010850694444444444,18.663194444444443,0)" xlink:href="#X"/><use transform="matrix(0.010850694444444444,0,0,0.010850694444444444,31.618923611111104,0)" xlink:href="#aB"/><use transform="matrix(0.010850694444444444,0,0,0.010850694444444444,45.22569444444444,0)" xlink:href="#X"/><use transform="matrix(0.010850694444444444,0,0,0.010850694444444444,58.18142361111111,0)" xlink:href="#al"/><use transform="matrix(0.010850694444444444,0,0,0.010850694444444444,66.17838541666666,0)" xlink:href="#am"/></g><g id="r"><use transform="matrix(0.010850694444444444,0,0,0.010850694444444444,0,0)" xlink:href="#U"/><use transform="matrix(0.010850694444444444,0,0,0.010850694444444444,7.378472222222222,0)" xlink:href="#S"/><use transform="matrix(0.010850694444444444,0,0,0.010850694444444444,19.856770833333332,0)" xlink:href="#aB"/><use transform="matrix(0.010850694444444444,0,0,0.010850694444444444,33.463541666666664,0)" xlink:href="#ak"/><use transform="matrix(0.010850694444444444,0,0,0.010850694444444444,38.84548611111111,0)" xlink:href="#X"/></g><path d="M678-1118v154H420V0H240v-964H20v-154h220v-149c0-194 155-293 318-293 85 0 141 18 168 30l-50 154c-19-6-47-17-97-17-111 0-159 58-159 166v109h258" id="aC"/><g id="s"><use transform="matrix(0.010850694444444444,0,0,0.010850694444444444,0,0)" xlink:href="#aC"/><use transform="matrix(0.010850694444444444,0,0,0.010850694444444444,7.573784722222222,0)" xlink:href="#V"/><use transform="matrix(0.010850694444444444,0,0,0.010850694444444444,20.8984375,0)" xlink:href="#al"/><use transform="matrix(0.010850694444444444,0,0,0.010850694444444444,29.61154513888889,0)" xlink:href="#ag"/><use transform="matrix(0.010850694444444444,0,0,0.010850694444444444,49.07769097222221,0)" xlink:href="#S"/><use transform="matrix(0.010850694444444444,0,0,0.010850694444444444,61.55598958333333,0)" xlink:href="#U"/></g><path d="M180 0v-1490h510c348 0 508 209 508 474 0 266-160 477-507 477H370V0H180zm190-706h312c236 0 327-133 327-310 0-176-91-307-329-307H370v617" id="aD"/><path d="M1096 418H916v-591h-14C865-111 790 24 577 24c-279 0-473-224-473-580 0-354 195-576 474-576 218 0 287 134 324 193h20v-179h174V418zM604-137c203 0 314-172 314-421 0-247-108-413-314-413-212 0-317 181-317 413 0 235 108 421 317 421" id="aE"/><g id="t"><use transform="matrix(0.010850694444444444,0,0,0.010850694444444444,0,0)" xlink:href="#an"/><use transform="matrix(0.010850694444444444,0,0,0.010850694444444444,8.10546875,0)" xlink:href="#aD"/><use transform="matrix(0.010850694444444444,0,0,0.010850694444444444,22.298177083333332,0)" xlink:href="#S"/><use transform="matrix(0.010850694444444444,0,0,0.010850694444444444,34.77647569444444,0)" xlink:href="#al"/><use transform="matrix(0.010850694444444444,0,0,0.010850694444444444,42.77343749999999,0)" xlink:href="#aE"/><use transform="matrix(0.010850694444444444,0,0,0.010850694444444444,56.38020833333333,0)" xlink:href="#as"/><use transform="matrix(0.010850694444444444,0,0,0.010850694444444444,69.52039930555554,0)" xlink:href="#X"/><use transform="matrix(0.010850694444444444,0,0,0.010850694444444444,82.47612847222221,0)" xlink:href="#U"/></g><path d="M409 0L70-1118h191c89 329 165 560 243 925 75-353 154-601 240-925h192c85 325 161 564 235 922 77-354 157-598 244-922h191L1267 0h-179c-86-307-176-590-250-913C763-588 675-308 588 0H409" id="aF"/><g id="u"><use transform="matrix(0.010850694444444444,0,0,0.010850694444444444,0,0)" xlink:href="#aF"/><use transform="matrix(0.010850694444444444,0,0,0.010850694444444444,18.18576388888889,0)" xlink:href="#Z"/><use transform="matrix(0.010850694444444444,0,0,0.010850694444444444,23.567708333333336,0)" xlink:href="#U"/><use transform="matrix(0.010850694444444444,0,0,0.010850694444444444,30.837673611111114,0)" xlink:href="#az"/></g><path d="M180 0v-1490h270l367 940c28 72 75 218 110 339 35-117 81-264 110-339l362-940h271V0h-187c2-448-5-837 7-1287-157 497-311 829-483 1287H842C666-458 514-784 354-1284c12 438 5 843 7 1284H180" id="aG"/><g id="v"><use transform="matrix(0.010850694444444444,0,0,0.010850694444444444,0,0)" xlink:href="#aG"/><use transform="matrix(0.010850694444444444,0,0,0.010850694444444444,20.07378472222222,0)" xlink:href="#X"/><use transform="matrix(0.010850694444444444,0,0,0.010850694444444444,33.029513888888886,0)" xlink:href="#U"/><use transform="matrix(0.010850694444444444,0,0,0.010850694444444444,40.40798611111111,0)" xlink:href="#S"/><use transform="matrix(0.010850694444444444,0,0,0.010850694444444444,52.88628472222221,0)" xlink:href="#aw"/><use transform="matrix(0.010850694444444444,0,0,0.010850694444444444,66.49305555555554,0)" xlink:href="#S"/><use transform="matrix(0.010850694444444444,0,0,0.010850694444444444,78.97135416666666,0)" xlink:href="#U"/><use transform="matrix(0.010850694444444444,0,0,0.010850694444444444,86.34982638888887,0)" xlink:href="#S"/><use transform="matrix(0.010850694444444444,0,0,0.010850694444444444,98.82812499999997,0)" xlink:href="#ap"/></g><g id="w"><use transform="matrix(0.010850694444444444,0,0,0.010850694444444444,0,0)" xlink:href="#al"/><use transform="matrix(0.010850694444444444,0,0,0.010850694444444444,8.365885416666666,0)" xlink:href="#S"/><use transform="matrix(0.010850694444444444,0,0,0.010850694444444444,20.84418402777778,0)" xlink:href="#aF"/></g><g id="x"><use transform="matrix(0.010850694444444444,0,0,0.010850694444444444,0,0)" xlink:href="#at"/><use transform="matrix(0.010850694444444444,0,0,0.010850694444444444,11.729600694444445,0)" xlink:href="#U"/><use transform="matrix(0.010850694444444444,0,0,0.010850694444444444,19.108072916666668,0)" xlink:href="#S"/><use transform="matrix(0.010850694444444444,0,0,0.010850694444444444,31.586371527777775,0)" xlink:href="#am"/><use transform="matrix(0.010850694444444444,0,0,0.010850694444444444,45.21484375,0)" xlink:href="#Z"/><use transform="matrix(0.010850694444444444,0,0,0.010850694444444444,50.59678819444444,0)" xlink:href="#ai"/><use transform="matrix(0.010850694444444444,0,0,0.010850694444444444,63.72612847222222,0)" xlink:href="#am"/></g><g id="y"><use transform="matrix(0.010850694444444444,0,0,0.010850694444444444,0,0)" xlink:href="#ag"/><use transform="matrix(0.010850694444444444,0,0,0.010850694444444444,19.466145833333332,0)" xlink:href="#S"/><use transform="matrix(0.010850694444444444,0,0,0.010850694444444444,31.944444444444443,0)" xlink:href="#al"/><use transform="matrix(0.010850694444444444,0,0,0.010850694444444444,40.65755208333333,0)" xlink:href="#U"/></g><linearGradient gradientUnits="userSpaceOnUse" id="z" x1="1579.5" y1="-39.5" x2="1660.5" y2="-120.5"><stop offset="0%" stop-color="#b0084d"/><stop offset="100%" stop-color="#ff4f8b"/></linearGradient><linearGradient gradientUnits="userSpaceOnUse" id="A" x1="1579.5" y1="340.5" x2="1660.5" y2="259.5"><stop offset="0%" stop-color="#4d27a8"/><stop offset="100%" stop-color="#a166ff"/></linearGradient><g id="B"><use transform="matrix(0.010850694444444444,0,0,0.010850694444444444,0,0)" xlink:href="#aG"/><use transform="matrix(0.010850694444444444,0,0,0.010850694444444444,20.07378472222222,0)" xlink:href="#aq"/><use transform="matrix(0.010850694444444444,0,0,0.010850694444444444,40.71180555555556,0)" xlink:href="#af"/><use transform="matrix(0.010850694444444444,0,0,0.010850694444444444,56.3693576388889,0)" xlink:href="#af"/></g><path d="M798-719v166H144v-166h654" id="aH"/><g id="C"><use transform="matrix(0.010850694444444444,0,0,0.010850694444444444,0,0)" xlink:href="#aw"/><use transform="matrix(0.010850694444444444,0,0,0.010850694444444444,13.606770833333332,0)" xlink:href="#aB"/><use transform="matrix(0.010850694444444444,0,0,0.010850694444444444,27.213541666666664,0)" xlink:href="#U"/><use transform="matrix(0.010850694444444444,0,0,0.010850694444444444,34.049479166666664,0)" xlink:href="#aH"/><use transform="matrix(0.010850694444444444,0,0,0.010850694444444444,44.27083333333333,0)" xlink:href="#am"/><use transform="matrix(0.010850694444444444,0,0,0.010850694444444444,57.89930555555555,0)" xlink:href="#ak"/><use transform="matrix(0.010850694444444444,0,0,0.010850694444444444,63.28125,0)" xlink:href="#as"/><use transform="matrix(0.010850694444444444,0,0,0.010850694444444444,76.42144097222221,0)" xlink:href="#X"/></g><g id="D"><use transform="matrix(0.010850694444444444,0,0,0.010850694444444444,0,0)" xlink:href="#af"/><use transform="matrix(0.010850694444444444,0,0,0.010850694444444444,15.33203125,0)" xlink:href="#aw"/><use transform="matrix(0.010850694444444444,0,0,0.010850694444444444,28.938802083333332,0)" xlink:href="#S"/><use transform="matrix(0.010850694444444444,0,0,0.010850694444444444,41.41710069444444,0)" xlink:href="#T"/><use transform="matrix(0.010850694444444444,0,0,0.010850694444444444,55.02387152777778,0)" xlink:href="#U"/><use transform="matrix(0.010850694444444444,0,0,0.010850694444444444,62.076822916666664,0)" xlink:href="#X"/><use transform="matrix(0.010850694444444444,0,0,0.010850694444444444,75.03255208333333,0)" xlink:href="#al"/></g><path d="M98-1322v-168h1126v168H757V0H567v-1322H98" id="aI"/><path d="M180 0v-1490h510c348 0 508 194 508 460 0 198-88 351-276 417L1256 0h-220L726-579c-117 2-238 0-356 1V0H180zm190-747h312c235 0 327-108 327-283 0-177-92-293-329-293H370v576" id="aJ"/><path d="M180 0v-1490h224l606 953c40 63 108 177 176 312-27-437-7-821-13-1265h190V0h-226C860-448 622-778 356-1262c27 476 11 792 15 1262H180" id="aK"/><path d="M180 0v-1490h901v168H370v510h643v168H370V0H180" id="aL"/><path d="M784 20c-382 0-662-292-662-764 0-473 280-766 662-766s660 293 660 766c0 472-278 764-660 764zm0-176c266 0 475-207 475-588 0-383-209-590-475-590-268 0-477 208-477 590 0 380 209 588 477 588" id="aM"/><g id="E"><use transform="matrix(0.010850694444444444,0,0,0.010850694444444444,0,0)" xlink:href="#aI"/><use transform="matrix(0.010850694444444444,0,0,0.010850694444444444,14.344618055555555,0)" xlink:href="#aJ"/><use transform="matrix(0.010850694444444444,0,0,0.010850694444444444,28.645833333333332,0)" xlink:href="#af"/><use transform="matrix(0.010850694444444444,0,0,0.010850694444444444,43.97786458333333,0)" xlink:href="#aK"/><use transform="matrix(0.010850694444444444,0,0,0.010850694444444444,60.72048611111111,0)" xlink:href="#aj"/><use transform="matrix(0.010850694444444444,0,0,0.010850694444444444,74.97829861111111,0)" xlink:href="#aL"/><use transform="matrix(0.010850694444444444,0,0,0.010850694444444444,88.09678819444444,0)" xlink:href="#aM"/><use transform="matrix(0.010850694444444444,0,0,0.010850694444444444,105.08897569444444,0)" xlink:href="#aJ"/><use transform="matrix(0.010850694444444444,0,0,0.010850694444444444,119.39019097222221,0)" xlink:href="#aG"/><use transform="matrix(0.010850694444444444,0,0,0.010850694444444444,139.46397569444443,0)" xlink:href="#af"/><use transform="matrix(0.010850694444444444,0,0,0.010850694444444444,152.9079861111111,0)" xlink:href="#aI"/><use transform="matrix(0.010850694444444444,0,0,0.010850694444444444,167.25260416666663,0)" xlink:href="#aA"/><use transform="matrix(0.010850694444444444,0,0,0.010850694444444444,173.2204861111111,0)" xlink:href="#aM"/><use transform="matrix(0.010850694444444444,0,0,0.010850694444444444,190.21267361111111,0)" xlink:href="#aK"/></g><path d="M783 20c-382 0-661-292-661-764 0-473 279-766 661-766 302 0 548 182 601 489h-190c-42-204-217-313-411-313-268 0-476 208-476 590 0 381 209 588 476 588 195 0 369-110 411-313h190c-52 303-296 489-601 489" id="aN"/><g id="F"><use transform="matrix(0.010850694444444444,0,0,0.010850694444444444,0,0)" xlink:href="#aN"/><use transform="matrix(0.010850694444444444,0,0,0.010850694444444444,16.23263888888889,0)" xlink:href="#ak"/><use transform="matrix(0.010850694444444444,0,0,0.010850694444444444,21.614583333333336,0)" xlink:href="#V"/><use transform="matrix(0.010850694444444444,0,0,0.010850694444444444,34.939236111111114,0)" xlink:href="#as"/><use transform="matrix(0.010850694444444444,0,0,0.010850694444444444,48.07942708333333,0)" xlink:href="#aw"/></g><g id="G"><use transform="matrix(0.010850694444444444,0,0,0.010850694444444444,0,0)" xlink:href="#aj"/><use transform="matrix(0.010850694444444444,0,0,0.010850694444444444,14.2578125,0)" xlink:href="#ai"/><use transform="matrix(0.010850694444444444,0,0,0.010850694444444444,27.38715277777778,0)" xlink:href="#V"/><use transform="matrix(0.010850694444444444,0,0,0.010850694444444444,40.310329861111114,0)" xlink:href="#aF"/><use transform="matrix(0.010850694444444444,0,0,0.010850694444444444,58.49609375,0)" xlink:href="#aC"/><use transform="matrix(0.010850694444444444,0,0,0.010850694444444444,66.72092013888889,0)" xlink:href="#ak"/><use transform="matrix(0.010850694444444444,0,0,0.010850694444444444,72.10286458333333,0)" xlink:href="#S"/><use transform="matrix(0.010850694444444444,0,0,0.010850694444444444,84.58116319444444,0)" xlink:href="#ay"/><use transform="matrix(0.010850694444444444,0,0,0.010850694444444444,96.27821180555556,0)" xlink:href="#X"/></g><path d="M180 0v-1490h908v168H370v486h669v168H370v500h727V0H180" id="aO"/><path d="M65 0l393-574-370-544h210c88 136 192 297 267 435 67-142 176-302 264-435h206L661-564 1053 0H844c-94-144-206-310-287-458C484-308 366-142 273 0H65" id="aP"/><g id="H"><use transform="matrix(0.010850694444444444,0,0,0.010850694444444444,0,0)" xlink:href="#aO"/><use transform="matrix(0.010850694444444444,0,0,0.010850694444444444,13.35720486111111,0)" xlink:href="#aP"/><use transform="matrix(0.010850694444444444,0,0,0.010850694444444444,25.92230902777778,0)" xlink:href="#U"/><use transform="matrix(0.010850694444444444,0,0,0.010850694444444444,32.975260416666664,0)" xlink:href="#X"/><use transform="matrix(0.010850694444444444,0,0,0.010850694444444444,45.93098958333333,0)" xlink:href="#al"/><use transform="matrix(0.010850694444444444,0,0,0.010850694444444444,54.64409722222221,0)" xlink:href="#ai"/><use transform="matrix(0.010850694444444444,0,0,0.010850694444444444,67.77343749999999,0)" xlink:href="#S"/><use transform="matrix(0.010850694444444444,0,0,0.010850694444444444,80.2517361111111,0)" xlink:href="#ak"/></g><path d="M600 0L52-1490h200c166 485 304 806 458 1336 156-533 285-846 449-1336h202L819 0H600" id="aQ"/><g id="I"><use transform="matrix(0.010850694444444444,0,0,0.010850694444444444,0,0)" xlink:href="#aQ"/><use transform="matrix(0.010850694444444444,0,0,0.010850694444444444,14.20355902777778,0)" xlink:href="#V"/><use transform="matrix(0.010850694444444444,0,0,0.010850694444444444,27.52821180555556,0)" xlink:href="#ak"/><use transform="matrix(0.010850694444444444,0,0,0.010850694444444444,32.91015625,0)" xlink:href="#as"/><use transform="matrix(0.010850694444444444,0,0,0.010850694444444444,46.05034722222222,0)" xlink:href="#ag"/><use transform="matrix(0.010850694444444444,0,0,0.010850694444444444,65.51649305555556,0)" xlink:href="#X"/></g><g id="J"><use transform="matrix(0.010850694444444444,0,0,0.010850694444444444,0,0)" xlink:href="#ar"/><use transform="matrix(0.010850694444444444,0,0,0.010850694444444444,16.57986111111111,0)" xlink:href="#ak"/><use transform="matrix(0.010850694444444444,0,0,0.010850694444444444,21.961805555555557,0)" xlink:href="#as"/><use transform="matrix(0.010850694444444444,0,0,0.010850694444444444,35.10199652777778,0)" xlink:href="#X"/></g><g id="K"><use transform="matrix(0.010850694444444444,0,0,0.010850694444444444,0,0)" xlink:href="#aN"/><use transform="matrix(0.010850694444444444,0,0,0.010850694444444444,16.23263888888889,0)" xlink:href="#S"/><use transform="matrix(0.010850694444444444,0,0,0.010850694444444444,28.7109375,0)" xlink:href="#U"/><use transform="matrix(0.010850694444444444,0,0,0.010850694444444444,36.08940972222222,0)" xlink:href="#S"/><use transform="matrix(0.010850694444444444,0,0,0.010850694444444444,48.56770833333333,0)" xlink:href="#ak"/><use transform="matrix(0.010850694444444444,0,0,0.010850694444444444,53.94965277777778,0)" xlink:href="#V"/><use transform="matrix(0.010850694444444444,0,0,0.010850694444444444,67.27430555555554,0)" xlink:href="#am"/></g><g id="L"><use transform="matrix(0.010850694444444444,0,0,0.010850694444444444,0,0)" xlink:href="#aN"/><use transform="matrix(0.010850694444444444,0,0,0.010850694444444444,16.23263888888889,0)" xlink:href="#S"/><use transform="matrix(0.010850694444444444,0,0,0.010850694444444444,28.7109375,0)" xlink:href="#U"/><use transform="matrix(0.010850694444444444,0,0,0.010850694444444444,36.08940972222222,0)" xlink:href="#S"/><use transform="matrix(0.010850694444444444,0,0,0.010850694444444444,48.56770833333333,0)" xlink:href="#ak"/><use transform="matrix(0.010850694444444444,0,0,0.010850694444444444,53.94965277777778,0)" xlink:href="#V"/><use transform="matrix(0.010850694444444444,0,0,0.010850694444444444,67.27430555555554,0)" xlink:href="#am"/></g><g id="M"><use transform="matrix(0.010850694444444444,0,0,0.010850694444444444,0,0)" xlink:href="#aA"/><use transform="matrix(0.010850694444444444,0,0,0.010850694444444444,5.967881944444445,0)" xlink:href="#ag"/><use transform="matrix(0.010850694444444444,0,0,0.010850694444444444,25.43402777777778,0)" xlink:href="#T"/><use transform="matrix(0.010850694444444444,0,0,0.010850694444444444,39.040798611111114,0)" xlink:href="#ak"/></g><g id="N"><use transform="matrix(0.010850694444444444,0,0,0.010850694444444444,0,0)" xlink:href="#aA"/><use transform="matrix(0.010850694444444444,0,0,0.010850694444444444,5.967881944444445,0)" xlink:href="#aa"/><use transform="matrix(0.010850694444444444,0,0,0.010850694444444444,18.663194444444443,0)" xlink:href="#X"/><use transform="matrix(0.010850694444444444,0,0,0.010850694444444444,31.618923611111104,0)" xlink:href="#aB"/><use transform="matrix(0.010850694444444444,0,0,0.010850694444444444,45.22569444444444,0)" xlink:href="#X"/><use transform="matrix(0.010850694444444444,0,0,0.010850694444444444,58.18142361111111,0)" xlink:href="#al"/><use transform="matrix(0.010850694444444444,0,0,0.010850694444444444,66.17838541666666,0)" xlink:href="#am"/></g><g id="O"><use transform="matrix(0.010850694444444444,0,0,0.010850694444444444,0,0)" xlink:href="#aI"/><use transform="matrix(0.010850694444444444,0,0,0.010850694444444444,12.71701388888889,0)" xlink:href="#S"/><use transform="matrix(0.010850694444444444,0,0,0.010850694444444444,25.1953125,0)" xlink:href="#aB"/><use transform="matrix(0.010850694444444444,0,0,0.010850694444444444,38.80208333333333,0)" xlink:href="#ak"/><use transform="matrix(0.010850694444444444,0,0,0.010850694444444444,44.18402777777777,0)" xlink:href="#X"/><use transform="matrix(0.010850694444444444,0,0,0.010850694444444444,57.139756944444436,0)" xlink:href="#at"/></g><g id="P"><use transform="matrix(0.010850694444444444,0,0,0.010850694444444444,0,0)" xlink:href="#aq"/><use transform="matrix(0.010850694444444444,0,0,0.010850694444444444,20.768229166666668,0)" xlink:href="#S"/><use transform="matrix(0.010850694444444444,0,0,0.010850694444444444,33.24652777777778,0)" xlink:href="#al"/><use transform="matrix(0.010850694444444444,0,0,0.010850694444444444,41.24348958333333,0)" xlink:href="#X"/><use transform="matrix(0.010850694444444444,0,0,0.010850694444444444,54.199218749999986,0)" xlink:href="#az"/><use transform="matrix(0.010850694444444444,0,0,0.010850694444444444,67.33940972222221,0)" xlink:href="#V"/><use transform="matrix(0.010850694444444444,0,0,0.010850694444444444,80.66406249999999,0)" xlink:href="#as"/><use transform="matrix(0.010850694444444444,0,0,0.010850694444444444,93.8042534722222,0)" xlink:href="#at"/><use transform="matrix(0.010850694444444444,0,0,0.010850694444444444,105.53385416666664,0)" xlink:href="#X"/></g><g id="Q"><use transform="matrix(0.010850694444444444,0,0,0.010850694444444444,0,0)" xlink:href="#aj"/><use transform="matrix(0.010850694444444444,0,0,0.010850694444444444,14.2578125,0)" xlink:href="#ai"/><use transform="matrix(0.010850694444444444,0,0,0.010850694444444444,27.38715277777778,0)" xlink:href="#V"/><use transform="matrix(0.010850694444444444,0,0,0.010850694444444444,40.310329861111114,0)" xlink:href="#aF"/><use transform="matrix(0.010850694444444444,0,0,0.010850694444444444,58.49609375,0)" xlink:href="#aC"/><use transform="matrix(0.010850694444444444,0,0,0.010850694444444444,66.72092013888889,0)" xlink:href="#ak"/><use transform="matrix(0.010850694444444444,0,0,0.010850694444444444,72.10286458333333,0)" xlink:href="#S"/><use transform="matrix(0.010850694444444444,0,0,0.010850694444444444,84.58116319444444,0)" xlink:href="#ay"/><use transform="matrix(0.010850694444444444,0,0,0.010850694444444444,96.27821180555556,0)" xlink:href="#X"/></g></defs></g></svg>